PathFileType	4	(X/Y/Z)	\\147.46.242.158\로컬 디스크 (e)\MOCAP Data\Iguana Capture\iguana\Project 2\Capture day 6 after broken\Session 1\Take06.trc
DataRate	CameraRate	NumFrames	NumMarkers	Units	OrigDataRate	OrigDataStartFrame	OrigNumFrames
120.0	120.0	8	23	mm	120.0	206	8064
Frame#	Time	ana:head1			ana:head2			ana:bone1			ana:bone2			ana:bone3			ana:tail1			ana:tail2			ana:tail3			ana:tail4			ana:Rforefoot1			ana:Rforefoot2			ana:Rforefoot3			ana:Lforefoot1			ana:Lforefoot2			ana:Lforefoot3			ana:RhindLeg1			ana:RhindLeg2			ana:RhindLeg3			ana:RhindLeg4			ana:LhindLeg1			ana:LhindLeg2			ana:LhindLeg3			ana:LhindLeg4			
		X1	Y1	Z1	X2	Y2	Z2	X3	Y3	Z3	X4	Y4	Z4	X5	Y5	Z5	X6	Y6	Z6	X7	Y7	Z7	X8	Y8	Z8	X9	Y9	Z9	X10	Y10	Z10	X11	Y11	Z11	X12	Y12	Z12	X13	Y13	Z13	X14	Y14	Z14	X15	Y15	Z15	X16	Y16	Z16	X17	Y17	Z17	X18	Y18	Z18	X19	Y19	Z19	X20	Y20	Z20	X21	Y21	Z21	X22	Y22	Z22	X23	Y23	Z23	

6161	51.333	125.64593	-467.56540	69.95389	135.49112	-466.24997	70.90073	156.59940	-460.02002	61.85384	181.31079	-449.10312	59.63808	212.23357	-434.35449	50.52082	237.71761	-417.54861	51.51854	272.65063	-407.35712	65.21603	304.12198	-415.79428	85.02975	324.24799	-431.49011	106.39141	147.46912	-456.43729	40.18031	155.03220	-452.19684	25.68593	152.18764	-456.86298	8.43112	153.81680	-477.63193	40.94047	160.54422	-485.12268	29.77428	158.25417	-493.24802	14.73477	207.17642	-428.52292	39.07062	195.00414	-423.07239	28.63511	212.50053	-419.96005	11.70888	198.75456	-420.14270	7.62605	221.27470	-443.59372	43.65975	232.22432	-453.38568	33.02211	243.27826	-444.26086	18.23475	246.07584	-452.04504	7.74272	
6162	51.342	125.58949	-467.15091	69.81820	135.43372	-465.96460	70.60426	156.55917	-459.72107	61.80070	181.26947	-448.80002	59.58432	212.28784	-433.98630	50.46648	237.83127	-417.32980	51.48547	272.67667	-406.96667	65.30638	304.17535	-415.25931	85.18723	324.20203	-430.79742	106.54904	147.41960	-456.07333	40.14300	155.11255	-452.04922	25.62818	152.19925	-456.84662	8.42339	153.82500	-477.29337	40.94586	160.51305	-484.73676	29.75561	158.16792	-492.93057	14.70556	206.60735	-428.50739	38.70835	196.23184	-423.53845	27.92500	212.57637	-420.09778	11.78844	198.80156	-420.09885	7.58830	221.26077	-443.31735	43.72144	232.20747	-453.18079	33.11703	243.35118	-444.40494	18.40951	246.07668	-452.04080	7.74265	
6163	51.350	125.56020	-466.80078	69.87326	135.54643	-465.65146	70.70543	156.50801	-459.48956	61.80060	181.27631	-448.62921	59.60195	212.31862	-433.88272	50.51027	237.89305	-417.23181	51.46391	272.75974	-406.80341	65.34065	304.22751	-414.71838	85.29421	324.14114	-430.20959	106.72829	147.21194	-455.77267	40.24038	155.13354	-451.84296	25.57618	152.17551	-456.83020	8.44910	153.76067	-477.05933	41.07552	160.46844	-484.51871	29.76978	158.04143	-492.69095	14.79616	206.35106	-428.49371	38.77882	196.29790	-423.44836	27.89606	212.41231	-419.69208	11.38822	198.86057	-420.07239	7.53841	221.20924	-443.15109	43.75072	232.15614	-453.03790	33.08973	243.51414	-444.81421	18.81632	246.07225	-452.04092	7.73824	
6164	51.358	125.47077	-466.55243	70.00955	135.51456	-465.20575	70.92855	156.48001	-459.19250	61.85247	181.25682	-448.58804	59.71532	212.32205	-433.92374	50.59136	237.95122	-417.20663	51.45782	272.76871	-406.77780	65.36652	304.19641	-414.38266	85.32644	324.15814	-429.85297	106.84740	147.08224	-455.48807	40.31444	155.04263	-451.60861	25.56442	152.09872	-456.79004	8.52907	153.62366	-476.86642	41.23120	160.37601	-484.35184	29.84317	157.93381	-492.50870	14.87833	206.53114	-428.24954	38.74950	196.33105	-423.42606	27.89182	212.32312	-419.08530	10.92021	198.84814	-420.05765	7.55833	221.21843	-443.11545	43.77653	232.05231	-452.97778	33.02463	243.49013	-444.80591	18.79509	246.05597	-452.04187	7.72211	
6165	51.367	125.30271	-466.32831	70.14944	135.30138	-464.86353	71.20194	156.35182	-458.94836	61.84827	181.15860	-448.42352	59.78571	212.30157	-433.86066	50.53513	237.98494	-417.25693	51.47701	272.73273	-406.74615	65.34389	304.14816	-414.24484	85.39669	324.25287	-429.91449	107.26175	146.93210	-455.25659	40.41910	154.86490	-451.39526	25.62634	152.03546	-456.77689	8.57908	153.42381	-476.68445	41.35266	160.15625	-484.24448	29.98436	157.79448	-492.37015	14.99110	206.78821	-428.15094	38.84691	196.31992	-423.42252	27.89226	212.41396	-419.65222	11.42227	198.85851	-420.07849	7.54151	221.19859	-443.15417	43.78162	232.05814	-453.09711	33.12538	243.30835	-444.40552	18.40174	246.04292	-452.04111	7.70308	
6166	51.375	125.12312	-466.03052	70.19232	134.97948	-464.68732	71.41343	156.20860	-458.86133	61.88815	181.07838	-448.36874	59.81166	212.25439	-433.92239	50.54077	238.00351	-417.40515	51.52136	272.70551	-406.83240	65.38036	304.12903	-414.20599	85.49234	324.46201	-429.87524	107.44743	146.79703	-455.12708	40.52704	154.81471	-451.32547	25.65949	151.98309	-456.74396	8.59409	153.22050	-476.51828	41.37465	159.91150	-484.11606	30.07489	157.62035	-492.26703	15.13787	207.11508	-428.11044	39.09451	196.32831	-423.43784	27.89916	212.56262	-419.84564	11.85281	198.80029	-420.08270	7.56183	221.14835	-443.24680	43.79669	231.98784	-453.18903	33.13275	243.23694	-444.30441	18.30191	246.04990	-452.03821	7.69780	
6167	51.383	125.03896	-465.66248	70.07328	134.75850	-464.32242	71.14729	156.05511	-458.82712	61.92371	181.01228	-448.35931	59.79041	212.24359	-434.05771	50.58010	238.00275	-417.64722	51.58756	272.75238	-407.04279	65.44405	304.23734	-414.26199	85.49433	324.39438	-429.74246	107.54251	146.74992	-455.07550	40.57342	154.82877	-451.30368	25.66926	151.97073	-456.68860	8.57375	152.99580	-476.40991	41.36931	159.74152	-483.92822	30.08310	157.41403	-492.19678	15.23074	206.60942	-428.35486	39.04577	196.32144	-423.45346	27.91047	212.52286	-419.63382	11.86213	198.79594	-420.03635	7.49501	221.08884	-443.42401	43.79548	231.86771	-453.19495	32.98846	243.23036	-444.33154	18.33701	246.05612	-452.04285	7.72439	
6168	51.392	124.92130	-465.42767	69.97892	134.73425	-463.88278	70.84469	155.96410	-458.79462	61.91248	180.97673	-448.38058	59.78651	212.23584	-434.19650	50.59108	238.01538	-417.90012	51.67593	272.84048	-407.34171	65.52106	304.36325	-414.36649	85.50053	324.40262	-429.76089	107.64203	146.78076	-455.06583	40.52647	154.81017	-451.31030	25.63932	152.05460	-456.63629	8.46945	152.84305	-476.30365	41.28009	159.58388	-483.85495	30.07620	157.29741	-492.14703	15.21352	206.33366	-428.67038	39.18310	196.37115	-423.45325	27.90200	212.51149	-419.46585	11.84644	198.83597	-420.07199	7.48872	221.05568	-443.60144	43.78167	231.85114	-453.29327	32.94432	243.23407	-444.37280	18.37140	246.06451	-452.04883	7.75356	
